<?xml version="1.0" standalone="no"?>
<!DOCTYPE svg PUBLIC "-//W3C//DTD SVG 20010904//EN"
 "http://www.w3.org/TR/2001/REC-SVG-20010904/DTD/svg10.dtd">
<svg version="1.0" xmlns="http://www.w3.org/2000/svg"
 width="512.000000pt" height="512.000000pt" viewBox="0 0 512.000000 512.000000"
 preserveAspectRatio="xMidYMid meet">

<g transform="translate(0.000000,512.000000) scale(0.100000,-0.100000)"
fill="#000000" stroke="none">
<path d="M2395 5114 c-553 -58 -991 -261 -1361 -629 -598 -596 -786 -1428
-498 -2202 80 -214 229 -471 382 -657 93 -114 1579 -1602 1614 -1617 21 -9 35
-9 56 0 35 15 1522 1503 1614 1617 193 234 346 519 428 795 204 687 48 1385
-435 1947 -338 393 -799 648 -1315 727 -102 15 -405 27 -485 19z m350 -154
c489 -46 938 -263 1271 -613 693 -728 736 -1767 106 -2587 -77 -101 -1539
-1570 -1562 -1570 -23 0 -1485 1469 -1562 1570 -101 132 -173 247 -243 392
-307 633 -262 1336 121 1909 419 628 1128 968 1869 899z"/>
<path d="M2352 4619 c-262 -35 -541 -147 -765 -306 -110 -78 -307 -276 -389
-393 -129 -182 -228 -411 -280 -651 -19 -89 -22 -134 -22 -309 0 -175 3 -220
22 -309 52 -240 151 -469 280 -651 86 -122 280 -316 402 -402 182 -129 415
-229 650 -279 140 -30 455 -33 595 -6 235 46 490 154 675 285 122 86 316 280
402 402 129 182 229 415 279 650 20 90 23 135 23 310 0 175 -3 220 -22 309
-36 163 -78 285 -148 426 -233 470 -663 799 -1184 906 -112 23 -404 33 -518
18z m520 -168 c620 -134 1100 -643 1193 -1265 86 -585 -172 -1164 -668 -1495
-438 -294 -1016 -333 -1492 -102 -326 159 -557 390 -716 716 -328 675 -105
1491 524 1919 166 112 409 208 612 241 130 21 418 13 547 -14z"/>
<path d="M2410 3822 c-27 -9 -50 -35 -50 -57 0 -12 14 -44 31 -71 18 -27 47
-73 66 -102 l34 -53 -25 -42 c-14 -23 -79 -127 -145 -232 -66 -104 -146 -230
-176 -280 -31 -49 -85 -135 -120 -190 -35 -55 -105 -167 -157 -250 l-93 -150
-2 125 c-2 69 -5 135 -8 147 -12 54 -80 73 -109 31 -14 -19 -16 -63 -16 -281
l0 -258 25 -24 24 -25 876 0 c862 0 875 0 895 20 19 19 20 33 20 289 0 296 -1
301 -60 301 -52 0 -60 -26 -60 -189 l0 -144 -32 49 c-17 27 -41 65 -53 84 -70
110 -605 960 -620 986 l-18 32 66 106 c37 58 67 114 67 124 0 21 -27 49 -50
52 -39 6 -52 -5 -102 -85 l-54 -84 -51 78 c-52 81 -76 102 -103 93z m315 -657
c76 -121 163 -260 194 -308 31 -49 69 -110 85 -135 40 -64 94 -150 121 -192
12 -19 38 -60 57 -90 19 -30 56 -87 81 -127 26 -40 47 -75 47 -78 0 -3 -105
-4 -232 -3 l-233 3 -5 160 c-6 180 -15 210 -77 272 -52 52 -105 76 -178 81
-113 8 -201 -37 -260 -133 -30 -48 -30 -51 -35 -214 l-5 -166 -232 -3 c-128
-1 -233 1 -233 5 0 3 17 34 39 67 44 71 143 227 185 294 17 26 45 71 63 100
18 28 49 78 69 110 20 31 47 73 59 92 12 19 39 62 60 95 21 33 48 76 60 95 51
81 95 150 149 238 52 83 60 91 71 75 6 -10 74 -117 150 -238z m-77 -562 c61
-40 72 -76 72 -238 l0 -135 -156 0 -155 0 3 154 c3 138 5 158 24 183 48 66
141 82 212 36z"/>
</g>
</svg>
